# xmcd
# 
# Track frame offsets:
#     150
#     16318
#     31436
# 
# Disc length: 632
# 
# Revision: 1
# Processed by: cddbd v1.5.2PL0 Copyright (c) Steve Scherf et al.
# Submitted via: fre:ac v1.0.31
# 
DISCID=1a027603
DTITLE=門矢 士(井上 正大) - Ride the Wind
DYEAR=2009
DGENRE=Vocal
TTITLE0=Ride the Wind
TTITLE1=KAMEN RIDE power guiter Edit.
TTITLE2=Ride the Wind - instrumental
EXTD=
EXTT0=
EXTT1=
EXTT2=
PLAYORDER=
